solid poligono
  facet normal 0.000000000000e+00 9.986295347546e-01 5.233595624295e-02
    outer loop
      vertex -5.000000000000e-02 7.620000000000e-02 0.000000000000e+00
      vertex -5.000000000000e-02 7.578256842706e-02 7.965068900995e-03
      vertex 2.550000000000e+00 7.578256842706e-02 7.965068900995e-03
    endloop
  endfacet
  facet normal -0.000000000000e+00 9.986295347546e-01 5.233595624295e-02
    outer loop
      vertex -5.000000000000e-02 7.620000000000e-02 0.000000000000e+00
      vertex 2.550000000000e+00 7.578256842706e-02 7.965068900995e-03
      vertex 2.550000000000e+00 7.620000000000e-02 0.000000000000e+00
    endloop
  endfacet
  facet normal 0.000000000000e+00 9.876883405951e-01 1.564344650402e-01
    outer loop
      vertex -5.000000000000e-02 7.578256842706e-02 7.965068900995e-03
      vertex -5.000000000000e-02 7.453484717592e-02 1.584287084031e-02
      vertex 2.550000000000e+00 7.453484717592e-02 1.584287084031e-02
    endloop
  endfacet
  facet normal -0.000000000000e+00 9.876883405951e-01 1.564344650402e-01
    outer loop
      vertex -5.000000000000e-02 7.578256842706e-02 7.965068900995e-03
      vertex 2.550000000000e+00 7.453484717592e-02 1.584287084031e-02
      vertex 2.550000000000e+00 7.578256842706e-02 7.965068900995e-03
    endloop
  endfacet
  facet normal 0.000000000000e+00 9.659258262891e-01 2.588190451025e-01
    outer loop
      vertex -5.000000000000e-02 7.453484717592e-02 1.584287084031e-02
      vertex -5.000000000000e-02 7.247050654169e-02 2.354709497137e-02
      vertex 2.550000000000e+00 7.247050654169e-02 2.354709497137e-02
    endloop
  endfacet
  facet normal -0.000000000000e+00 9.659258262891e-01 2.588190451025e-01
    outer loop
      vertex -5.000000000000e-02 7.453484717592e-02 1.584287084031e-02
      vertex 2.550000000000e+00 7.247050654169e-02 2.354709497137e-02
      vertex 2.550000000000e+00 7.453484717592e-02 1.584287084031e-02
    endloop
  endfacet
  facet normal 0.000000000000e+00 9.335804264972e-01 3.583679495453e-01
    outer loop
      vertex -5.000000000000e-02 7.247050654169e-02 2.354709497137e-02
      vertex -5.000000000000e-02 6.961216387237e-02 3.099333220238e-02
      vertex 2.550000000000e+00 6.961216387237e-02 3.099333220238e-02
    endloop
  endfacet
  facet normal -0.000000000000e+00 9.335804264972e-01 3.583679495453e-01
    outer loop
      vertex -5.000000000000e-02 7.247050654169e-02 2.354709497137e-02
      vertex 2.550000000000e+00 6.961216387237e-02 3.099333220238e-02
      vertex 2.550000000000e+00 7.247050654169e-02 2.354709497137e-02
    endloop
  endfacet
  facet normal 0.000000000000e+00 8.910065241884e-01 4.539904997395e-01
    outer loop
      vertex -5.000000000000e-02 6.961216387237e-02 3.099333220238e-02
      vertex -5.000000000000e-02 6.599113576837e-02 3.810000000000e-02
      vertex 2.550000000000e+00 6.599113576837e-02 3.810000000000e-02
    endloop
  endfacet
  facet normal -0.000000000000e+00 8.910065241884e-01 4.539904997395e-01
    outer loop
      vertex -5.000000000000e-02 6.961216387237e-02 3.099333220238e-02
      vertex 2.550000000000e+00 6.599113576837e-02 3.810000000000e-02
      vertex 2.550000000000e+00 6.961216387237e-02 3.099333220238e-02
    endloop
  endfacet
  facet normal 0.000000000000e+00 8.386705679454e-01 5.446390350150e-01
    outer loop
      vertex -5.000000000000e-02 6.599113576837e-02 3.810000000000e-02
      vertex -5.000000000000e-02 6.164709497137e-02 4.478923622469e-02
      vertex 2.550000000000e+00 6.164709497137e-02 4.478923622469e-02
    endloop
  endfacet
  facet normal -0.000000000000e+00 8.386705679454e-01 5.446390350150e-01
    outer loop
      vertex -5.000000000000e-02 6.599113576837e-02 3.810000000000e-02
      vertex 2.550000000000e+00 6.164709497137e-02 4.478923622469e-02
      vertex 2.550000000000e+00 6.599113576837e-02 3.810000000000e-02
    endloop
  endfacet
  facet normal 0.000000000000e+00 7.771459614570e-01 6.293203910498e-01
    outer loop
      vertex -5.000000000000e-02 6.164709497137e-02 4.478923622469e-02
      vertex -5.000000000000e-02 5.662763570138e-02 5.098775220455e-02
      vertex 2.550000000000e+00 5.662763570138e-02 5.098775220455e-02
    endloop
  endfacet
  facet normal -0.000000000000e+00 7.771459614570e-01 6.293203910498e-01
    outer loop
      vertex -5.000000000000e-02 6.164709497137e-02 4.478923622469e-02
      vertex 2.550000000000e+00 5.662763570138e-02 5.098775220455e-02
      vertex 2.550000000000e+00 6.164709497137e-02 4.478923622469e-02
    endloop
  endfacet
  facet normal 0.000000000000e+00 7.071067811865e-01 7.071067811865e-01
    outer loop
      vertex -5.000000000000e-02 5.662763570138e-02 5.098775220455e-02
      vertex -5.000000000000e-02 5.098775220455e-02 5.662763570138e-02
      vertex 2.550000000000e+00 5.098775220455e-02 5.662763570138e-02
    endloop
  endfacet
  facet normal -0.000000000000e+00 7.071067811865e-01 7.071067811865e-01
    outer loop
      vertex -5.000000000000e-02 5.662763570138e-02 5.098775220455e-02
      vertex 2.550000000000e+00 5.098775220455e-02 5.662763570138e-02
      vertex 2.550000000000e+00 5.662763570138e-02 5.098775220455e-02
    endloop
  endfacet
  facet normal 0.000000000000e+00 6.293203910498e-01 7.771459614570e-01
    outer loop
      vertex -5.000000000000e-02 5.098775220455e-02 5.662763570138e-02
      vertex -5.000000000000e-02 4.478923622469e-02 6.164709497137e-02
      vertex 2.550000000000e+00 4.478923622469e-02 6.164709497137e-02
    endloop
  endfacet
  facet normal -0.000000000000e+00 6.293203910498e-01 7.771459614570e-01
    outer loop
      vertex -5.000000000000e-02 5.098775220455e-02 5.662763570138e-02
      vertex 2.550000000000e+00 4.478923622469e-02 6.164709497137e-02
      vertex 2.550000000000e+00 5.098775220455e-02 5.662763570138e-02
    endloop
  endfacet
  facet normal 0.000000000000e+00 5.446390350150e-01 8.386705679454e-01
    outer loop
      vertex -5.000000000000e-02 4.478923622469e-02 6.164709497137e-02
      vertex -5.000000000000e-02 3.810000000000e-02 6.599113576837e-02
      vertex 2.550000000000e+00 3.810000000000e-02 6.599113576837e-02
    endloop
  endfacet
  facet normal -0.000000000000e+00 5.446390350150e-01 8.386705679454e-01
    outer loop
      vertex -5.000000000000e-02 4.478923622469e-02 6.164709497137e-02
      vertex 2.550000000000e+00 3.810000000000e-02 6.599113576837e-02
      vertex 2.550000000000e+00 4.478923622469e-02 6.164709497137e-02
    endloop
  endfacet
  facet normal 0.000000000000e+00 4.539904997395e-01 8.910065241884e-01
    outer loop
      vertex -5.000000000000e-02 3.810000000000e-02 6.599113576837e-02
      vertex -5.000000000000e-02 3.099333220238e-02 6.961216387237e-02
      vertex 2.550000000000e+00 3.099333220238e-02 6.961216387237e-02
    endloop
  endfacet
  facet normal -0.000000000000e+00 4.539904997395e-01 8.910065241884e-01
    outer loop
      vertex -5.000000000000e-02 3.810000000000e-02 6.599113576837e-02
      vertex 2.550000000000e+00 3.099333220238e-02 6.961216387237e-02
      vertex 2.550000000000e+00 3.810000000000e-02 6.599113576837e-02
    endloop
  endfacet
  facet normal 0.000000000000e+00 3.583679495453e-01 9.335804264972e-01
    outer loop
      vertex -5.000000000000e-02 3.099333220238e-02 6.961216387237e-02
      vertex -5.000000000000e-02 2.354709497137e-02 7.247050654169e-02
      vertex 2.550000000000e+00 2.354709497137e-02 7.247050654169e-02
    endloop
  endfacet
  facet normal -0.000000000000e+00 3.583679495453e-01 9.335804264972e-01
    outer loop
      vertex -5.000000000000e-02 3.099333220238e-02 6.961216387237e-02
      vertex 2.550000000000e+00 2.354709497137e-02 7.247050654169e-02
      vertex 2.550000000000e+00 3.099333220238e-02 6.961216387237e-02
    endloop
  endfacet
  facet normal 0.000000000000e+00 2.588190451025e-01 9.659258262891e-01
    outer loop
      vertex -5.000000000000e-02 2.354709497137e-02 7.247050654169e-02
      vertex -5.000000000000e-02 1.584287084031e-02 7.453484717592e-02
      vertex 2.550000000000e+00 1.584287084031e-02 7.453484717592e-02
    endloop
  endfacet
  facet normal -0.000000000000e+00 2.588190451025e-01 9.659258262891e-01
    outer loop
      vertex -5.000000000000e-02 2.354709497137e-02 7.247050654169e-02
      vertex 2.550000000000e+00 1.584287084031e-02 7.453484717592e-02
      vertex 2.550000000000e+00 2.354709497137e-02 7.247050654169e-02
    endloop
  endfacet
  facet normal 0.000000000000e+00 1.564344650402e-01 9.876883405951e-01
    outer loop
      vertex -5.000000000000e-02 1.584287084031e-02 7.453484717592e-02
      vertex -5.000000000000e-02 7.965068900995e-03 7.578256842706e-02
      vertex 2.550000000000e+00 7.965068900995e-03 7.578256842706e-02
    endloop
  endfacet
  facet normal -0.000000000000e+00 1.564344650402e-01 9.876883405951e-01
    outer loop
      vertex -5.000000000000e-02 1.584287084031e-02 7.453484717592e-02
      vertex 2.550000000000e+00 7.965068900995e-03 7.578256842706e-02
      vertex 2.550000000000e+00 1.584287084031e-02 7.453484717592e-02
    endloop
  endfacet
  facet normal 0.000000000000e+00 5.233595624295e-02 9.986295347546e-01
    outer loop
      vertex -5.000000000000e-02 7.965068900995e-03 7.578256842706e-02
      vertex -5.000000000000e-02 4.665904304751e-18 7.620000000000e-02
      vertex 2.550000000000e+00 4.665904304751e-18 7.620000000000e-02
    endloop
  endfacet
  facet normal -0.000000000000e+00 5.233595624295e-02 9.986295347546e-01
    outer loop
      vertex -5.000000000000e-02 7.965068900995e-03 7.578256842706e-02
      vertex 2.550000000000e+00 4.665904304751e-18 7.620000000000e-02
      vertex 2.550000000000e+00 7.965068900995e-03 7.578256842706e-02
    endloop
  endfacet
  facet normal 0.000000000000e+00 -5.233595624295e-02 9.986295347546e-01
    outer loop
      vertex -5.000000000000e-02 4.665904304751e-18 7.620000000000e-02
      vertex -5.000000000000e-02 -7.965068900995e-03 7.578256842706e-02
      vertex 2.550000000000e+00 -7.965068900995e-03 7.578256842706e-02
    endloop
  endfacet
  facet normal 0.000000000000e+00 -5.233595624295e-02 9.986295347546e-01
    outer loop
      vertex -5.000000000000e-02 4.665904304751e-18 7.620000000000e-02
      vertex 2.550000000000e+00 -7.965068900995e-03 7.578256842706e-02
      vertex 2.550000000000e+00 4.665904304751e-18 7.620000000000e-02
    endloop
  endfacet
  facet normal 0.000000000000e+00 -1.564344650402e-01 9.876883405951e-01
    outer loop
      vertex -5.000000000000e-02 -7.965068900995e-03 7.578256842706e-02
      vertex -5.000000000000e-02 -1.584287084031e-02 7.453484717592e-02
      vertex 2.550000000000e+00 -1.584287084031e-02 7.453484717592e-02
    endloop
  endfacet
  facet normal 0.000000000000e+00 -1.564344650402e-01 9.876883405951e-01
    outer loop
      vertex -5.000000000000e-02 -7.965068900995e-03 7.578256842706e-02
      vertex 2.550000000000e+00 -1.584287084031e-02 7.453484717592e-02
      vertex 2.550000000000e+00 -7.965068900995e-03 7.578256842706e-02
    endloop
  endfacet
  facet normal 0.000000000000e+00 -2.588190451025e-01 9.659258262891e-01
    outer loop
      vertex -5.000000000000e-02 -1.584287084031e-02 7.453484717592e-02
      vertex -5.000000000000e-02 -2.354709497137e-02 7.247050654169e-02
      vertex 2.550000000000e+00 -2.354709497137e-02 7.247050654169e-02
    endloop
  endfacet
  facet normal 0.000000000000e+00 -2.588190451025e-01 9.659258262891e-01
    outer loop
      vertex -5.000000000000e-02 -1.584287084031e-02 7.453484717592e-02
      vertex 2.550000000000e+00 -2.354709497137e-02 7.247050654169e-02
      vertex 2.550000000000e+00 -1.584287084031e-02 7.453484717592e-02
    endloop
  endfacet
  facet normal 0.000000000000e+00 -3.583679495453e-01 9.335804264972e-01
    outer loop
      vertex -5.000000000000e-02 -2.354709497137e-02 7.247050654169e-02
      vertex -5.000000000000e-02 -3.099333220238e-02 6.961216387237e-02
      vertex 2.550000000000e+00 -3.099333220238e-02 6.961216387237e-02
    endloop
  endfacet
  facet normal 0.000000000000e+00 -3.583679495453e-01 9.335804264972e-01
    outer loop
      vertex -5.000000000000e-02 -2.354709497137e-02 7.247050654169e-02
      vertex 2.550000000000e+00 -3.099333220238e-02 6.961216387237e-02
      vertex 2.550000000000e+00 -2.354709497137e-02 7.247050654169e-02
    endloop
  endfacet
  facet normal 0.000000000000e+00 -4.539904997395e-01 8.910065241884e-01
    outer loop
      vertex -5.000000000000e-02 -3.099333220238e-02 6.961216387237e-02
      vertex -5.000000000000e-02 -3.810000000000e-02 6.599113576837e-02
      vertex 2.550000000000e+00 -3.810000000000e-02 6.599113576837e-02
    endloop
  endfacet
  facet normal 0.000000000000e+00 -4.539904997395e-01 8.910065241884e-01
    outer loop
      vertex -5.000000000000e-02 -3.099333220238e-02 6.961216387237e-02
      vertex 2.550000000000e+00 -3.810000000000e-02 6.599113576837e-02
      vertex 2.550000000000e+00 -3.099333220238e-02 6.961216387237e-02
    endloop
  endfacet
  facet normal 0.000000000000e+00 -5.446390350150e-01 8.386705679454e-01
    outer loop
      vertex -5.000000000000e-02 -3.810000000000e-02 6.599113576837e-02
      vertex -5.000000000000e-02 -4.478923622469e-02 6.164709497137e-02
      vertex 2.550000000000e+00 -4.478923622469e-02 6.164709497137e-02
    endloop
  endfacet
  facet normal 0.000000000000e+00 -5.446390350150e-01 8.386705679454e-01
    outer loop
      vertex -5.000000000000e-02 -3.810000000000e-02 6.599113576837e-02
      vertex 2.550000000000e+00 -4.478923622469e-02 6.164709497137e-02
      vertex 2.550000000000e+00 -3.810000000000e-02 6.599113576837e-02
    endloop
  endfacet
  facet normal 0.000000000000e+00 -6.293203910498e-01 7.771459614570e-01
    outer loop
      vertex -5.000000000000e-02 -4.478923622469e-02 6.164709497137e-02
      vertex -5.000000000000e-02 -5.098775220455e-02 5.662763570138e-02
      vertex 2.550000000000e+00 -5.098775220455e-02 5.662763570138e-02
    endloop
  endfacet
  facet normal 0.000000000000e+00 -6.293203910498e-01 7.771459614570e-01
    outer loop
      vertex -5.000000000000e-02 -4.478923622469e-02 6.164709497137e-02
      vertex 2.550000000000e+00 -5.098775220455e-02 5.662763570138e-02
      vertex 2.550000000000e+00 -4.478923622469e-02 6.164709497137e-02
    endloop
  endfacet
  facet normal 0.000000000000e+00 -7.071067811865e-01 7.071067811865e-01
    outer loop
      vertex -5.000000000000e-02 -5.098775220455e-02 5.662763570138e-02
      vertex -5.000000000000e-02 -5.662763570138e-02 5.098775220455e-02
      vertex 2.550000000000e+00 -5.662763570138e-02 5.098775220455e-02
    endloop
  endfacet
  facet normal 0.000000000000e+00 -7.071067811865e-01 7.071067811865e-01
    outer loop
      vertex -5.000000000000e-02 -5.098775220455e-02 5.662763570138e-02
      vertex 2.550000000000e+00 -5.662763570138e-02 5.098775220455e-02
      vertex 2.550000000000e+00 -5.098775220455e-02 5.662763570138e-02
    endloop
  endfacet
  facet normal 0.000000000000e+00 -7.771459614570e-01 6.293203910498e-01
    outer loop
      vertex -5.000000000000e-02 -5.662763570138e-02 5.098775220455e-02
      vertex -5.000000000000e-02 -6.164709497137e-02 4.478923622469e-02
      vertex 2.550000000000e+00 -6.164709497137e-02 4.478923622469e-02
    endloop
  endfacet
  facet normal 0.000000000000e+00 -7.771459614570e-01 6.293203910498e-01
    outer loop
      vertex -5.000000000000e-02 -5.662763570138e-02 5.098775220455e-02
      vertex 2.550000000000e+00 -6.164709497137e-02 4.478923622469e-02
      vertex 2.550000000000e+00 -5.662763570138e-02 5.098775220455e-02
    endloop
  endfacet
  facet normal 0.000000000000e+00 -8.386705679454e-01 5.446390350150e-01
    outer loop
      vertex -5.000000000000e-02 -6.164709497137e-02 4.478923622469e-02
      vertex -5.000000000000e-02 -6.599113576837e-02 3.810000000000e-02
      vertex 2.550000000000e+00 -6.599113576837e-02 3.810000000000e-02
    endloop
  endfacet
  facet normal 0.000000000000e+00 -8.386705679454e-01 5.446390350150e-01
    outer loop
      vertex -5.000000000000e-02 -6.164709497137e-02 4.478923622469e-02
      vertex 2.550000000000e+00 -6.599113576837e-02 3.810000000000e-02
      vertex 2.550000000000e+00 -6.164709497137e-02 4.478923622469e-02
    endloop
  endfacet
  facet normal 0.000000000000e+00 -8.910065241884e-01 4.539904997395e-01
    outer loop
      vertex -5.000000000000e-02 -6.599113576837e-02 3.810000000000e-02
      vertex -5.000000000000e-02 -6.961216387237e-02 3.099333220238e-02
      vertex 2.550000000000e+00 -6.961216387237e-02 3.099333220238e-02
    endloop
  endfacet
  facet normal 0.000000000000e+00 -8.910065241884e-01 4.539904997395e-01
    outer loop
      vertex -5.000000000000e-02 -6.599113576837e-02 3.810000000000e-02
      vertex 2.550000000000e+00 -6.961216387237e-02 3.099333220238e-02
      vertex 2.550000000000e+00 -6.599113576837e-02 3.810000000000e-02
    endloop
  endfacet
  facet normal 0.000000000000e+00 -9.335804264972e-01 3.583679495453e-01
    outer loop
      vertex -5.000000000000e-02 -6.961216387237e-02 3.099333220238e-02
      vertex -5.000000000000e-02 -7.247050654169e-02 2.354709497137e-02
      vertex 2.550000000000e+00 -7.247050654169e-02 2.354709497137e-02
    endloop
  endfacet
  facet normal 0.000000000000e+00 -9.335804264972e-01 3.583679495453e-01
    outer loop
      vertex -5.000000000000e-02 -6.961216387237e-02 3.099333220238e-02
      vertex 2.550000000000e+00 -7.247050654169e-02 2.354709497137e-02
      vertex 2.550000000000e+00 -6.961216387237e-02 3.099333220238e-02
    endloop
  endfacet
  facet normal 0.000000000000e+00 -9.659258262891e-01 2.588190451025e-01
    outer loop
      vertex -5.000000000000e-02 -7.247050654169e-02 2.354709497137e-02
      vertex -5.000000000000e-02 -7.453484717592e-02 1.584287084031e-02
      vertex 2.550000000000e+00 -7.453484717592e-02 1.584287084031e-02
    endloop
  endfacet
  facet normal 0.000000000000e+00 -9.659258262891e-01 2.588190451025e-01
    outer loop
      vertex -5.000000000000e-02 -7.247050654169e-02 2.354709497137e-02
      vertex 2.550000000000e+00 -7.453484717592e-02 1.584287084031e-02
      vertex 2.550000000000e+00 -7.247050654169e-02 2.354709497137e-02
    endloop
  endfacet
  facet normal 0.000000000000e+00 -9.876883405951e-01 1.564344650402e-01
    outer loop
      vertex -5.000000000000e-02 -7.453484717592e-02 1.584287084031e-02
      vertex -5.000000000000e-02 -7.578256842706e-02 7.965068900995e-03
      vertex 2.550000000000e+00 -7.578256842706e-02 7.965068900995e-03
    endloop
  endfacet
  facet normal 0.000000000000e+00 -9.876883405951e-01 1.564344650402e-01
    outer loop
      vertex -5.000000000000e-02 -7.453484717592e-02 1.584287084031e-02
      vertex 2.550000000000e+00 -7.578256842706e-02 7.965068900995e-03
      vertex 2.550000000000e+00 -7.453484717592e-02 1.584287084031e-02
    endloop
  endfacet
  facet normal 0.000000000000e+00 -9.986295347546e-01 5.233595624295e-02
    outer loop
      vertex -5.000000000000e-02 -7.578256842706e-02 7.965068900995e-03
      vertex -5.000000000000e-02 -7.620000000000e-02 9.331808609503e-18
      vertex 2.550000000000e+00 -7.620000000000e-02 9.331808609503e-18
    endloop
  endfacet
  facet normal 0.000000000000e+00 -9.986295347546e-01 5.233595624295e-02
    outer loop
      vertex -5.000000000000e-02 -7.578256842706e-02 7.965068900995e-03
      vertex 2.550000000000e+00 -7.620000000000e-02 9.331808609503e-18
      vertex 2.550000000000e+00 -7.578256842706e-02 7.965068900995e-03
    endloop
  endfacet
  facet normal 0.000000000000e+00 -9.986295347546e-01 -5.233595624295e-02
    outer loop
      vertex -5.000000000000e-02 -7.620000000000e-02 9.331808609503e-18
      vertex -5.000000000000e-02 -7.578256842706e-02 -7.965068900995e-03
      vertex 2.550000000000e+00 -7.578256842706e-02 -7.965068900995e-03
    endloop
  endfacet
  facet normal 0.000000000000e+00 -9.986295347546e-01 -5.233595624295e-02
    outer loop
      vertex -5.000000000000e-02 -7.620000000000e-02 9.331808609503e-18
      vertex 2.550000000000e+00 -7.578256842706e-02 -7.965068900995e-03
      vertex 2.550000000000e+00 -7.620000000000e-02 9.331808609503e-18
    endloop
  endfacet
  facet normal 0.000000000000e+00 -9.876883405951e-01 -1.564344650402e-01
    outer loop
      vertex -5.000000000000e-02 -7.578256842706e-02 -7.965068900995e-03
      vertex -5.000000000000e-02 -7.453484717592e-02 -1.584287084031e-02
      vertex 2.550000000000e+00 -7.453484717592e-02 -1.584287084031e-02
    endloop
  endfacet
  facet normal 0.000000000000e+00 -9.876883405951e-01 -1.564344650402e-01
    outer loop
      vertex -5.000000000000e-02 -7.578256842706e-02 -7.965068900995e-03
      vertex 2.550000000000e+00 -7.453484717592e-02 -1.584287084031e-02
      vertex 2.550000000000e+00 -7.578256842706e-02 -7.965068900995e-03
    endloop
  endfacet
  facet normal 0.000000000000e+00 -9.659258262891e-01 -2.588190451025e-01
    outer loop
      vertex -5.000000000000e-02 -7.453484717592e-02 -1.584287084031e-02
      vertex -5.000000000000e-02 -7.247050654169e-02 -2.354709497137e-02
      vertex 2.550000000000e+00 -7.247050654169e-02 -2.354709497137e-02
    endloop
  endfacet
  facet normal 0.000000000000e+00 -9.659258262891e-01 -2.588190451025e-01
    outer loop
      vertex -5.000000000000e-02 -7.453484717592e-02 -1.584287084031e-02
      vertex 2.550000000000e+00 -7.247050654169e-02 -2.354709497137e-02
      vertex 2.550000000000e+00 -7.453484717592e-02 -1.584287084031e-02
    endloop
  endfacet
  facet normal 0.000000000000e+00 -9.335804264972e-01 -3.583679495453e-01
    outer loop
      vertex -5.000000000000e-02 -7.247050654169e-02 -2.354709497137e-02
      vertex -5.000000000000e-02 -6.961216387237e-02 -3.099333220238e-02
      vertex 2.550000000000e+00 -6.961216387237e-02 -3.099333220238e-02
    endloop
  endfacet
  facet normal 0.000000000000e+00 -9.335804264972e-01 -3.583679495453e-01
    outer loop
      vertex -5.000000000000e-02 -7.247050654169e-02 -2.354709497137e-02
      vertex 2.550000000000e+00 -6.961216387237e-02 -3.099333220238e-02
      vertex 2.550000000000e+00 -7.247050654169e-02 -2.354709497137e-02
    endloop
  endfacet
  facet normal 0.000000000000e+00 -8.910065241884e-01 -4.539904997395e-01
    outer loop
      vertex -5.000000000000e-02 -6.961216387237e-02 -3.099333220238e-02
      vertex -5.000000000000e-02 -6.599113576837e-02 -3.810000000000e-02
      vertex 2.550000000000e+00 -6.599113576837e-02 -3.810000000000e-02
    endloop
  endfacet
  facet normal 0.000000000000e+00 -8.910065241884e-01 -4.539904997395e-01
    outer loop
      vertex -5.000000000000e-02 -6.961216387237e-02 -3.099333220238e-02
      vertex 2.550000000000e+00 -6.599113576837e-02 -3.810000000000e-02
      vertex 2.550000000000e+00 -6.961216387237e-02 -3.099333220238e-02
    endloop
  endfacet
  facet normal 0.000000000000e+00 -8.386705679454e-01 -5.446390350150e-01
    outer loop
      vertex -5.000000000000e-02 -6.599113576837e-02 -3.810000000000e-02
      vertex -5.000000000000e-02 -6.164709497137e-02 -4.478923622469e-02
      vertex 2.550000000000e+00 -6.164709497137e-02 -4.478923622469e-02
    endloop
  endfacet
  facet normal 0.000000000000e+00 -8.386705679454e-01 -5.446390350150e-01
    outer loop
      vertex -5.000000000000e-02 -6.599113576837e-02 -3.810000000000e-02
      vertex 2.550000000000e+00 -6.164709497137e-02 -4.478923622469e-02
      vertex 2.550000000000e+00 -6.599113576837e-02 -3.810000000000e-02
    endloop
  endfacet
  facet normal 0.000000000000e+00 -7.771459614570e-01 -6.293203910498e-01
    outer loop
      vertex -5.000000000000e-02 -6.164709497137e-02 -4.478923622469e-02
      vertex -5.000000000000e-02 -5.662763570138e-02 -5.098775220455e-02
      vertex 2.550000000000e+00 -5.662763570138e-02 -5.098775220455e-02
    endloop
  endfacet
  facet normal 0.000000000000e+00 -7.771459614570e-01 -6.293203910498e-01
    outer loop
      vertex -5.000000000000e-02 -6.164709497137e-02 -4.478923622469e-02
      vertex 2.550000000000e+00 -5.662763570138e-02 -5.098775220455e-02
      vertex 2.550000000000e+00 -6.164709497137e-02 -4.478923622469e-02
    endloop
  endfacet
  facet normal 0.000000000000e+00 -7.071067811865e-01 -7.071067811865e-01
    outer loop
      vertex -5.000000000000e-02 -5.662763570138e-02 -5.098775220455e-02
      vertex -5.000000000000e-02 -5.098775220454e-02 -5.662763570138e-02
      vertex 2.550000000000e+00 -5.098775220454e-02 -5.662763570138e-02
    endloop
  endfacet
  facet normal 0.000000000000e+00 -7.071067811865e-01 -7.071067811865e-01
    outer loop
      vertex -5.000000000000e-02 -5.662763570138e-02 -5.098775220455e-02
      vertex 2.550000000000e+00 -5.098775220454e-02 -5.662763570138e-02
      vertex 2.550000000000e+00 -5.662763570138e-02 -5.098775220455e-02
    endloop
  endfacet
  facet normal 0.000000000000e+00 -6.293203910498e-01 -7.771459614570e-01
    outer loop
      vertex -5.000000000000e-02 -5.098775220454e-02 -5.662763570138e-02
      vertex -5.000000000000e-02 -4.478923622469e-02 -6.164709497137e-02
      vertex 2.550000000000e+00 -4.478923622469e-02 -6.164709497137e-02
    endloop
  endfacet
  facet normal 0.000000000000e+00 -6.293203910498e-01 -7.771459614570e-01
    outer loop
      vertex -5.000000000000e-02 -5.098775220454e-02 -5.662763570138e-02
      vertex 2.550000000000e+00 -4.478923622469e-02 -6.164709497137e-02
      vertex 2.550000000000e+00 -5.098775220454e-02 -5.662763570138e-02
    endloop
  endfacet
  facet normal 0.000000000000e+00 -5.446390350150e-01 -8.386705679454e-01
    outer loop
      vertex -5.000000000000e-02 -4.478923622469e-02 -6.164709497137e-02
      vertex -5.000000000000e-02 -3.810000000000e-02 -6.599113576837e-02
      vertex 2.550000000000e+00 -3.810000000000e-02 -6.599113576837e-02
    endloop
  endfacet
  facet normal 0.000000000000e+00 -5.446390350150e-01 -8.386705679454e-01
    outer loop
      vertex -5.000000000000e-02 -4.478923622469e-02 -6.164709497137e-02
      vertex 2.550000000000e+00 -3.810000000000e-02 -6.599113576837e-02
      vertex 2.550000000000e+00 -4.478923622469e-02 -6.164709497137e-02
    endloop
  endfacet
  facet normal 0.000000000000e+00 -4.539904997395e-01 -8.910065241884e-01
    outer loop
      vertex -5.000000000000e-02 -3.810000000000e-02 -6.599113576837e-02
      vertex -5.000000000000e-02 -3.099333220238e-02 -6.961216387237e-02
      vertex 2.550000000000e+00 -3.099333220238e-02 -6.961216387237e-02
    endloop
  endfacet
  facet normal 0.000000000000e+00 -4.539904997395e-01 -8.910065241884e-01
    outer loop
      vertex -5.000000000000e-02 -3.810000000000e-02 -6.599113576837e-02
      vertex 2.550000000000e+00 -3.099333220238e-02 -6.961216387237e-02
      vertex 2.550000000000e+00 -3.810000000000e-02 -6.599113576837e-02
    endloop
  endfacet
  facet normal 0.000000000000e+00 -3.583679495453e-01 -9.335804264972e-01
    outer loop
      vertex -5.000000000000e-02 -3.099333220238e-02 -6.961216387237e-02
      vertex -5.000000000000e-02 -2.354709497137e-02 -7.247050654169e-02
      vertex 2.550000000000e+00 -2.354709497137e-02 -7.247050654169e-02
    endloop
  endfacet
  facet normal 0.000000000000e+00 -3.583679495453e-01 -9.335804264972e-01
    outer loop
      vertex -5.000000000000e-02 -3.099333220238e-02 -6.961216387237e-02
      vertex 2.550000000000e+00 -2.354709497137e-02 -7.247050654169e-02
      vertex 2.550000000000e+00 -3.099333220238e-02 -6.961216387237e-02
    endloop
  endfacet
  facet normal 0.000000000000e+00 -2.588190451025e-01 -9.659258262891e-01
    outer loop
      vertex -5.000000000000e-02 -2.354709497137e-02 -7.247050654169e-02
      vertex -5.000000000000e-02 -1.584287084031e-02 -7.453484717592e-02
      vertex 2.550000000000e+00 -1.584287084031e-02 -7.453484717592e-02
    endloop
  endfacet
  facet normal 0.000000000000e+00 -2.588190451025e-01 -9.659258262891e-01
    outer loop
      vertex -5.000000000000e-02 -2.354709497137e-02 -7.247050654169e-02
      vertex 2.550000000000e+00 -1.584287084031e-02 -7.453484717592e-02
      vertex 2.550000000000e+00 -2.354709497137e-02 -7.247050654169e-02
    endloop
  endfacet
  facet normal 0.000000000000e+00 -1.564344650402e-01 -9.876883405951e-01
    outer loop
      vertex -5.000000000000e-02 -1.584287084031e-02 -7.453484717592e-02
      vertex -5.000000000000e-02 -7.965068900995e-03 -7.578256842706e-02
      vertex 2.550000000000e+00 -7.965068900995e-03 -7.578256842706e-02
    endloop
  endfacet
  facet normal 0.000000000000e+00 -1.564344650402e-01 -9.876883405951e-01
    outer loop
      vertex -5.000000000000e-02 -1.584287084031e-02 -7.453484717592e-02
      vertex 2.550000000000e+00 -7.965068900995e-03 -7.578256842706e-02
      vertex 2.550000000000e+00 -1.584287084031e-02 -7.453484717592e-02
    endloop
  endfacet
  facet normal 0.000000000000e+00 -5.233595624294e-02 -9.986295347546e-01
    outer loop
      vertex -5.000000000000e-02 -7.965068900995e-03 -7.578256842706e-02
      vertex -5.000000000000e-02 -1.399771291425e-17 -7.620000000000e-02
      vertex 2.550000000000e+00 -1.399771291425e-17 -7.620000000000e-02
    endloop
  endfacet
  facet normal 0.000000000000e+00 -5.233595624294e-02 -9.986295347546e-01
    outer loop
      vertex -5.000000000000e-02 -7.965068900995e-03 -7.578256842706e-02
      vertex 2.550000000000e+00 -1.399771291425e-17 -7.620000000000e-02
      vertex 2.550000000000e+00 -7.965068900995e-03 -7.578256842706e-02
    endloop
  endfacet
  facet normal 0.000000000000e+00 5.233595624294e-02 -9.986295347546e-01
    outer loop
      vertex -5.000000000000e-02 -1.399771291425e-17 -7.620000000000e-02
      vertex -5.000000000000e-02 7.965068900995e-03 -7.578256842706e-02
      vertex 2.550000000000e+00 7.965068900995e-03 -7.578256842706e-02
    endloop
  endfacet
  facet normal 0.000000000000e+00 5.233595624294e-02 -9.986295347546e-01
    outer loop
      vertex -5.000000000000e-02 -1.399771291425e-17 -7.620000000000e-02
      vertex 2.550000000000e+00 7.965068900995e-03 -7.578256842706e-02
      vertex 2.550000000000e+00 -1.399771291425e-17 -7.620000000000e-02
    endloop
  endfacet
  facet normal 0.000000000000e+00 1.564344650402e-01 -9.876883405951e-01
    outer loop
      vertex -5.000000000000e-02 7.965068900995e-03 -7.578256842706e-02
      vertex -5.000000000000e-02 1.584287084031e-02 -7.453484717592e-02
      vertex 2.550000000000e+00 1.584287084031e-02 -7.453484717592e-02
    endloop
  endfacet
  facet normal 0.000000000000e+00 1.564344650402e-01 -9.876883405951e-01
    outer loop
      vertex -5.000000000000e-02 7.965068900995e-03 -7.578256842706e-02
      vertex 2.550000000000e+00 1.584287084031e-02 -7.453484717592e-02
      vertex 2.550000000000e+00 7.965068900995e-03 -7.578256842706e-02
    endloop
  endfacet
  facet normal 0.000000000000e+00 2.588190451025e-01 -9.659258262891e-01
    outer loop
      vertex -5.000000000000e-02 1.584287084031e-02 -7.453484717592e-02
      vertex -5.000000000000e-02 2.354709497137e-02 -7.247050654169e-02
      vertex 2.550000000000e+00 2.354709497137e-02 -7.247050654169e-02
    endloop
  endfacet
  facet normal 0.000000000000e+00 2.588190451025e-01 -9.659258262891e-01
    outer loop
      vertex -5.000000000000e-02 1.584287084031e-02 -7.453484717592e-02
      vertex 2.550000000000e+00 2.354709497137e-02 -7.247050654169e-02
      vertex 2.550000000000e+00 1.584287084031e-02 -7.453484717592e-02
    endloop
  endfacet
  facet normal 0.000000000000e+00 3.583679495453e-01 -9.335804264972e-01
    outer loop
      vertex -5.000000000000e-02 2.354709497137e-02 -7.247050654169e-02
      vertex -5.000000000000e-02 3.099333220238e-02 -6.961216387237e-02
      vertex 2.550000000000e+00 3.099333220238e-02 -6.961216387237e-02
    endloop
  endfacet
  facet normal 0.000000000000e+00 3.583679495453e-01 -9.335804264972e-01
    outer loop
      vertex -5.000000000000e-02 2.354709497137e-02 -7.247050654169e-02
      vertex 2.550000000000e+00 3.099333220238e-02 -6.961216387237e-02
      vertex 2.550000000000e+00 2.354709497137e-02 -7.247050654169e-02
    endloop
  endfacet
  facet normal 0.000000000000e+00 4.539904997395e-01 -8.910065241884e-01
    outer loop
      vertex -5.000000000000e-02 3.099333220238e-02 -6.961216387237e-02
      vertex -5.000000000000e-02 3.810000000000e-02 -6.599113576837e-02
      vertex 2.550000000000e+00 3.810000000000e-02 -6.599113576837e-02
    endloop
  endfacet
  facet normal 0.000000000000e+00 4.539904997395e-01 -8.910065241884e-01
    outer loop
      vertex -5.000000000000e-02 3.099333220238e-02 -6.961216387237e-02
      vertex 2.550000000000e+00 3.810000000000e-02 -6.599113576837e-02
      vertex 2.550000000000e+00 3.099333220238e-02 -6.961216387237e-02
    endloop
  endfacet
  facet normal 0.000000000000e+00 5.446390350150e-01 -8.386705679454e-01
    outer loop
      vertex -5.000000000000e-02 3.810000000000e-02 -6.599113576837e-02
      vertex -5.000000000000e-02 4.478923622469e-02 -6.164709497137e-02
      vertex 2.550000000000e+00 4.478923622469e-02 -6.164709497137e-02
    endloop
  endfacet
  facet normal 0.000000000000e+00 5.446390350150e-01 -8.386705679454e-01
    outer loop
      vertex -5.000000000000e-02 3.810000000000e-02 -6.599113576837e-02
      vertex 2.550000000000e+00 4.478923622469e-02 -6.164709497137e-02
      vertex 2.550000000000e+00 3.810000000000e-02 -6.599113576837e-02
    endloop
  endfacet
  facet normal 0.000000000000e+00 6.293203910498e-01 -7.771459614570e-01
    outer loop
      vertex -5.000000000000e-02 4.478923622469e-02 -6.164709497137e-02
      vertex -5.000000000000e-02 5.098775220454e-02 -5.662763570138e-02
      vertex 2.550000000000e+00 5.098775220454e-02 -5.662763570138e-02
    endloop
  endfacet
  facet normal 0.000000000000e+00 6.293203910498e-01 -7.771459614570e-01
    outer loop
      vertex -5.000000000000e-02 4.478923622469e-02 -6.164709497137e-02
      vertex 2.550000000000e+00 5.098775220454e-02 -5.662763570138e-02
      vertex 2.550000000000e+00 4.478923622469e-02 -6.164709497137e-02
    endloop
  endfacet
  facet normal 0.000000000000e+00 7.071067811865e-01 -7.071067811865e-01
    outer loop
      vertex -5.000000000000e-02 5.098775220454e-02 -5.662763570138e-02
      vertex -5.000000000000e-02 5.662763570138e-02 -5.098775220454e-02
      vertex 2.550000000000e+00 5.662763570138e-02 -5.098775220454e-02
    endloop
  endfacet
  facet normal 0.000000000000e+00 7.071067811865e-01 -7.071067811865e-01
    outer loop
      vertex -5.000000000000e-02 5.098775220454e-02 -5.662763570138e-02
      vertex 2.550000000000e+00 5.662763570138e-02 -5.098775220454e-02
      vertex 2.550000000000e+00 5.098775220454e-02 -5.662763570138e-02
    endloop
  endfacet
  facet normal 0.000000000000e+00 7.771459614570e-01 -6.293203910498e-01
    outer loop
      vertex -5.000000000000e-02 5.662763570138e-02 -5.098775220454e-02
      vertex -5.000000000000e-02 6.164709497137e-02 -4.478923622469e-02
      vertex 2.550000000000e+00 6.164709497137e-02 -4.478923622469e-02
    endloop
  endfacet
  facet normal 0.000000000000e+00 7.771459614570e-01 -6.293203910498e-01
    outer loop
      vertex -5.000000000000e-02 5.662763570138e-02 -5.098775220454e-02
      vertex 2.550000000000e+00 6.164709497137e-02 -4.478923622469e-02
      vertex 2.550000000000e+00 5.662763570138e-02 -5.098775220454e-02
    endloop
  endfacet
  facet normal 0.000000000000e+00 8.386705679454e-01 -5.446390350150e-01
    outer loop
      vertex -5.000000000000e-02 6.164709497137e-02 -4.478923622469e-02
      vertex -5.000000000000e-02 6.599113576837e-02 -3.810000000000e-02
      vertex 2.550000000000e+00 6.599113576837e-02 -3.810000000000e-02
    endloop
  endfacet
  facet normal 0.000000000000e+00 8.386705679454e-01 -5.446390350150e-01
    outer loop
      vertex -5.000000000000e-02 6.164709497137e-02 -4.478923622469e-02
      vertex 2.550000000000e+00 6.599113576837e-02 -3.810000000000e-02
      vertex 2.550000000000e+00 6.164709497137e-02 -4.478923622469e-02
    endloop
  endfacet
  facet normal 0.000000000000e+00 8.910065241884e-01 -4.539904997395e-01
    outer loop
      vertex -5.000000000000e-02 6.599113576837e-02 -3.810000000000e-02
      vertex -5.000000000000e-02 6.961216387237e-02 -3.099333220238e-02
      vertex 2.550000000000e+00 6.961216387237e-02 -3.099333220238e-02
    endloop
  endfacet
  facet normal 0.000000000000e+00 8.910065241884e-01 -4.539904997395e-01
    outer loop
      vertex -5.000000000000e-02 6.599113576837e-02 -3.810000000000e-02
      vertex 2.550000000000e+00 6.961216387237e-02 -3.099333220238e-02
      vertex 2.550000000000e+00 6.599113576837e-02 -3.810000000000e-02
    endloop
  endfacet
  facet normal 0.000000000000e+00 9.335804264972e-01 -3.583679495453e-01
    outer loop
      vertex -5.000000000000e-02 6.961216387237e-02 -3.099333220238e-02
      vertex -5.000000000000e-02 7.247050654169e-02 -2.354709497137e-02
      vertex 2.550000000000e+00 7.247050654169e-02 -2.354709497137e-02
    endloop
  endfacet
  facet normal 0.000000000000e+00 9.335804264972e-01 -3.583679495453e-01
    outer loop
      vertex -5.000000000000e-02 6.961216387237e-02 -3.099333220238e-02
      vertex 2.550000000000e+00 7.247050654169e-02 -2.354709497137e-02
      vertex 2.550000000000e+00 6.961216387237e-02 -3.099333220238e-02
    endloop
  endfacet
  facet normal 0.000000000000e+00 9.659258262891e-01 -2.588190451025e-01
    outer loop
      vertex -5.000000000000e-02 7.247050654169e-02 -2.354709497137e-02
      vertex -5.000000000000e-02 7.453484717592e-02 -1.584287084031e-02
      vertex 2.550000000000e+00 7.453484717592e-02 -1.584287084031e-02
    endloop
  endfacet
  facet normal 0.000000000000e+00 9.659258262891e-01 -2.588190451025e-01
    outer loop
      vertex -5.000000000000e-02 7.247050654169e-02 -2.354709497137e-02
      vertex 2.550000000000e+00 7.453484717592e-02 -1.584287084031e-02
      vertex 2.550000000000e+00 7.247050654169e-02 -2.354709497137e-02
    endloop
  endfacet
  facet normal 0.000000000000e+00 9.876883405951e-01 -1.564344650402e-01
    outer loop
      vertex -5.000000000000e-02 7.453484717592e-02 -1.584287084031e-02
      vertex -5.000000000000e-02 7.578256842706e-02 -7.965068900995e-03
      vertex 2.550000000000e+00 7.578256842706e-02 -7.965068900995e-03
    endloop
  endfacet
  facet normal 0.000000000000e+00 9.876883405951e-01 -1.564344650402e-01
    outer loop
      vertex -5.000000000000e-02 7.453484717592e-02 -1.584287084031e-02
      vertex 2.550000000000e+00 7.578256842706e-02 -7.965068900995e-03
      vertex 2.550000000000e+00 7.453484717592e-02 -1.584287084031e-02
    endloop
  endfacet
  facet normal 0.000000000000e+00 9.986295347546e-01 -5.233595624295e-02
    outer loop
      vertex -5.000000000000e-02 7.578256842706e-02 -7.965068900995e-03
      vertex -5.000000000000e-02 7.620000000000e-02 0.000000000000e+00
      vertex 2.550000000000e+00 7.620000000000e-02 0.000000000000e+00
    endloop
  endfacet
  facet normal 0.000000000000e+00 9.986295347546e-01 -5.233595624295e-02
    outer loop
      vertex -5.000000000000e-02 7.578256842706e-02 -7.965068900995e-03
      vertex 2.550000000000e+00 7.620000000000e-02 0.000000000000e+00
      vertex 2.550000000000e+00 7.578256842706e-02 -7.965068900995e-03
    endloop
  endfacet
  facet normal -1.000000000000e+00 0.000000000000e+00 0.000000000000e+00
    outer loop
      vertex -5.000000000000e-02 0.000000000000e+00 0.000000000000e+00
      vertex -5.000000000000e-02 7.578256842706e-02 7.965068900995e-03
      vertex -5.000000000000e-02 7.620000000000e-02 0.000000000000e+00
    endloop
  endfacet
  facet normal 1.000000000000e+00 0.000000000000e+00 0.000000000000e+00
    outer loop
      vertex 2.550000000000e+00 0.000000000000e+00 0.000000000000e+00
      vertex 2.550000000000e+00 7.620000000000e-02 0.000000000000e+00
      vertex 2.550000000000e+00 7.578256842706e-02 7.965068900995e-03
    endloop
  endfacet
  facet normal -1.000000000000e+00 0.000000000000e+00 0.000000000000e+00
    outer loop
      vertex -5.000000000000e-02 0.000000000000e+00 0.000000000000e+00
      vertex -5.000000000000e-02 7.453484717592e-02 1.584287084031e-02
      vertex -5.000000000000e-02 7.578256842706e-02 7.965068900995e-03
    endloop
  endfacet
  facet normal 1.000000000000e+00 0.000000000000e+00 0.000000000000e+00
    outer loop
      vertex 2.550000000000e+00 0.000000000000e+00 0.000000000000e+00
      vertex 2.550000000000e+00 7.578256842706e-02 7.965068900995e-03
      vertex 2.550000000000e+00 7.453484717592e-02 1.584287084031e-02
    endloop
  endfacet
  facet normal -1.000000000000e+00 0.000000000000e+00 0.000000000000e+00
    outer loop
      vertex -5.000000000000e-02 0.000000000000e+00 0.000000000000e+00
      vertex -5.000000000000e-02 7.247050654169e-02 2.354709497137e-02
      vertex -5.000000000000e-02 7.453484717592e-02 1.584287084031e-02
    endloop
  endfacet
  facet normal 1.000000000000e+00 0.000000000000e+00 0.000000000000e+00
    outer loop
      vertex 2.550000000000e+00 0.000000000000e+00 0.000000000000e+00
      vertex 2.550000000000e+00 7.453484717592e-02 1.584287084031e-02
      vertex 2.550000000000e+00 7.247050654169e-02 2.354709497137e-02
    endloop
  endfacet
  facet normal -1.000000000000e+00 0.000000000000e+00 0.000000000000e+00
    outer loop
      vertex -5.000000000000e-02 0.000000000000e+00 0.000000000000e+00
      vertex -5.000000000000e-02 6.961216387237e-02 3.099333220238e-02
      vertex -5.000000000000e-02 7.247050654169e-02 2.354709497137e-02
    endloop
  endfacet
  facet normal 1.000000000000e+00 0.000000000000e+00 0.000000000000e+00
    outer loop
      vertex 2.550000000000e+00 0.000000000000e+00 0.000000000000e+00
      vertex 2.550000000000e+00 7.247050654169e-02 2.354709497137e-02
      vertex 2.550000000000e+00 6.961216387237e-02 3.099333220238e-02
    endloop
  endfacet
  facet normal -1.000000000000e+00 0.000000000000e+00 0.000000000000e+00
    outer loop
      vertex -5.000000000000e-02 0.000000000000e+00 0.000000000000e+00
      vertex -5.000000000000e-02 6.599113576837e-02 3.810000000000e-02
      vertex -5.000000000000e-02 6.961216387237e-02 3.099333220238e-02
    endloop
  endfacet
  facet normal 1.000000000000e+00 0.000000000000e+00 0.000000000000e+00
    outer loop
      vertex 2.550000000000e+00 0.000000000000e+00 0.000000000000e+00
      vertex 2.550000000000e+00 6.961216387237e-02 3.099333220238e-02
      vertex 2.550000000000e+00 6.599113576837e-02 3.810000000000e-02
    endloop
  endfacet
  facet normal -1.000000000000e+00 0.000000000000e+00 0.000000000000e+00
    outer loop
      vertex -5.000000000000e-02 0.000000000000e+00 0.000000000000e+00
      vertex -5.000000000000e-02 6.164709497137e-02 4.478923622469e-02
      vertex -5.000000000000e-02 6.599113576837e-02 3.810000000000e-02
    endloop
  endfacet
  facet normal 1.000000000000e+00 0.000000000000e+00 0.000000000000e+00
    outer loop
      vertex 2.550000000000e+00 0.000000000000e+00 0.000000000000e+00
      vertex 2.550000000000e+00 6.599113576837e-02 3.810000000000e-02
      vertex 2.550000000000e+00 6.164709497137e-02 4.478923622469e-02
    endloop
  endfacet
  facet normal -1.000000000000e+00 0.000000000000e+00 0.000000000000e+00
    outer loop
      vertex -5.000000000000e-02 0.000000000000e+00 0.000000000000e+00
      vertex -5.000000000000e-02 5.662763570138e-02 5.098775220455e-02
      vertex -5.000000000000e-02 6.164709497137e-02 4.478923622469e-02
    endloop
  endfacet
  facet normal 1.000000000000e+00 0.000000000000e+00 0.000000000000e+00
    outer loop
      vertex 2.550000000000e+00 0.000000000000e+00 0.000000000000e+00
      vertex 2.550000000000e+00 6.164709497137e-02 4.478923622469e-02
      vertex 2.550000000000e+00 5.662763570138e-02 5.098775220455e-02
    endloop
  endfacet
  facet normal -1.000000000000e+00 0.000000000000e+00 0.000000000000e+00
    outer loop
      vertex -5.000000000000e-02 0.000000000000e+00 0.000000000000e+00
      vertex -5.000000000000e-02 5.098775220455e-02 5.662763570138e-02
      vertex -5.000000000000e-02 5.662763570138e-02 5.098775220455e-02
    endloop
  endfacet
  facet normal 1.000000000000e+00 0.000000000000e+00 0.000000000000e+00
    outer loop
      vertex 2.550000000000e+00 0.000000000000e+00 0.000000000000e+00
      vertex 2.550000000000e+00 5.662763570138e-02 5.098775220455e-02
      vertex 2.550000000000e+00 5.098775220455e-02 5.662763570138e-02
    endloop
  endfacet
  facet normal -1.000000000000e+00 0.000000000000e+00 0.000000000000e+00
    outer loop
      vertex -5.000000000000e-02 0.000000000000e+00 0.000000000000e+00
      vertex -5.000000000000e-02 4.478923622469e-02 6.164709497137e-02
      vertex -5.000000000000e-02 5.098775220455e-02 5.662763570138e-02
    endloop
  endfacet
  facet normal 1.000000000000e+00 0.000000000000e+00 0.000000000000e+00
    outer loop
      vertex 2.550000000000e+00 0.000000000000e+00 0.000000000000e+00
      vertex 2.550000000000e+00 5.098775220455e-02 5.662763570138e-02
      vertex 2.550000000000e+00 4.478923622469e-02 6.164709497137e-02
    endloop
  endfacet
  facet normal -1.000000000000e+00 0.000000000000e+00 0.000000000000e+00
    outer loop
      vertex -5.000000000000e-02 0.000000000000e+00 0.000000000000e+00
      vertex -5.000000000000e-02 3.810000000000e-02 6.599113576837e-02
      vertex -5.000000000000e-02 4.478923622469e-02 6.164709497137e-02
    endloop
  endfacet
  facet normal 1.000000000000e+00 0.000000000000e+00 0.000000000000e+00
    outer loop
      vertex 2.550000000000e+00 0.000000000000e+00 0.000000000000e+00
      vertex 2.550000000000e+00 4.478923622469e-02 6.164709497137e-02
      vertex 2.550000000000e+00 3.810000000000e-02 6.599113576837e-02
    endloop
  endfacet
  facet normal -1.000000000000e+00 0.000000000000e+00 0.000000000000e+00
    outer loop
      vertex -5.000000000000e-02 0.000000000000e+00 0.000000000000e+00
      vertex -5.000000000000e-02 3.099333220238e-02 6.961216387237e-02
      vertex -5.000000000000e-02 3.810000000000e-02 6.599113576837e-02
    endloop
  endfacet
  facet normal 1.000000000000e+00 0.000000000000e+00 0.000000000000e+00
    outer loop
      vertex 2.550000000000e+00 0.000000000000e+00 0.000000000000e+00
      vertex 2.550000000000e+00 3.810000000000e-02 6.599113576837e-02
      vertex 2.550000000000e+00 3.099333220238e-02 6.961216387237e-02
    endloop
  endfacet
  facet normal -1.000000000000e+00 0.000000000000e+00 0.000000000000e+00
    outer loop
      vertex -5.000000000000e-02 0.000000000000e+00 0.000000000000e+00
      vertex -5.000000000000e-02 2.354709497137e-02 7.247050654169e-02
      vertex -5.000000000000e-02 3.099333220238e-02 6.961216387237e-02
    endloop
  endfacet
  facet normal 1.000000000000e+00 0.000000000000e+00 0.000000000000e+00
    outer loop
      vertex 2.550000000000e+00 0.000000000000e+00 0.000000000000e+00
      vertex 2.550000000000e+00 3.099333220238e-02 6.961216387237e-02
      vertex 2.550000000000e+00 2.354709497137e-02 7.247050654169e-02
    endloop
  endfacet
  facet normal -1.000000000000e+00 0.000000000000e+00 0.000000000000e+00
    outer loop
      vertex -5.000000000000e-02 0.000000000000e+00 0.000000000000e+00
      vertex -5.000000000000e-02 1.584287084031e-02 7.453484717592e-02
      vertex -5.000000000000e-02 2.354709497137e-02 7.247050654169e-02
    endloop
  endfacet
  facet normal 1.000000000000e+00 0.000000000000e+00 0.000000000000e+00
    outer loop
      vertex 2.550000000000e+00 0.000000000000e+00 0.000000000000e+00
      vertex 2.550000000000e+00 2.354709497137e-02 7.247050654169e-02
      vertex 2.550000000000e+00 1.584287084031e-02 7.453484717592e-02
    endloop
  endfacet
  facet normal -1.000000000000e+00 0.000000000000e+00 0.000000000000e+00
    outer loop
      vertex -5.000000000000e-02 0.000000000000e+00 0.000000000000e+00
      vertex -5.000000000000e-02 7.965068900995e-03 7.578256842706e-02
      vertex -5.000000000000e-02 1.584287084031e-02 7.453484717592e-02
    endloop
  endfacet
  facet normal 1.000000000000e+00 0.000000000000e+00 0.000000000000e+00
    outer loop
      vertex 2.550000000000e+00 0.000000000000e+00 0.000000000000e+00
      vertex 2.550000000000e+00 1.584287084031e-02 7.453484717592e-02
      vertex 2.550000000000e+00 7.965068900995e-03 7.578256842706e-02
    endloop
  endfacet
  facet normal -1.000000000000e+00 0.000000000000e+00 0.000000000000e+00
    outer loop
      vertex -5.000000000000e-02 0.000000000000e+00 0.000000000000e+00
      vertex -5.000000000000e-02 4.665904304751e-18 7.620000000000e-02
      vertex -5.000000000000e-02 7.965068900995e-03 7.578256842706e-02
    endloop
  endfacet
  facet normal 1.000000000000e+00 0.000000000000e+00 0.000000000000e+00
    outer loop
      vertex 2.550000000000e+00 0.000000000000e+00 0.000000000000e+00
      vertex 2.550000000000e+00 7.965068900995e-03 7.578256842706e-02
      vertex 2.550000000000e+00 4.665904304751e-18 7.620000000000e-02
    endloop
  endfacet
  facet normal -1.000000000000e+00 0.000000000000e+00 0.000000000000e+00
    outer loop
      vertex -5.000000000000e-02 0.000000000000e+00 0.000000000000e+00
      vertex -5.000000000000e-02 -7.965068900995e-03 7.578256842706e-02
      vertex -5.000000000000e-02 4.665904304751e-18 7.620000000000e-02
    endloop
  endfacet
  facet normal 1.000000000000e+00 0.000000000000e+00 -0.000000000000e+00
    outer loop
      vertex 2.550000000000e+00 0.000000000000e+00 0.000000000000e+00
      vertex 2.550000000000e+00 4.665904304751e-18 7.620000000000e-02
      vertex 2.550000000000e+00 -7.965068900995e-03 7.578256842706e-02
    endloop
  endfacet
  facet normal -1.000000000000e+00 0.000000000000e+00 0.000000000000e+00
    outer loop
      vertex -5.000000000000e-02 0.000000000000e+00 0.000000000000e+00
      vertex -5.000000000000e-02 -1.584287084031e-02 7.453484717592e-02
      vertex -5.000000000000e-02 -7.965068900995e-03 7.578256842706e-02
    endloop
  endfacet
  facet normal 1.000000000000e+00 0.000000000000e+00 0.000000000000e+00
    outer loop
      vertex 2.550000000000e+00 0.000000000000e+00 0.000000000000e+00
      vertex 2.550000000000e+00 -7.965068900995e-03 7.578256842706e-02
      vertex 2.550000000000e+00 -1.584287084031e-02 7.453484717592e-02
    endloop
  endfacet
  facet normal -1.000000000000e+00 0.000000000000e+00 0.000000000000e+00
    outer loop
      vertex -5.000000000000e-02 0.000000000000e+00 0.000000000000e+00
      vertex -5.000000000000e-02 -2.354709497137e-02 7.247050654169e-02
      vertex -5.000000000000e-02 -1.584287084031e-02 7.453484717592e-02
    endloop
  endfacet
  facet normal 1.000000000000e+00 0.000000000000e+00 0.000000000000e+00
    outer loop
      vertex 2.550000000000e+00 0.000000000000e+00 0.000000000000e+00
      vertex 2.550000000000e+00 -1.584287084031e-02 7.453484717592e-02
      vertex 2.550000000000e+00 -2.354709497137e-02 7.247050654169e-02
    endloop
  endfacet
  facet normal -1.000000000000e+00 0.000000000000e+00 0.000000000000e+00
    outer loop
      vertex -5.000000000000e-02 0.000000000000e+00 0.000000000000e+00
      vertex -5.000000000000e-02 -3.099333220238e-02 6.961216387237e-02
      vertex -5.000000000000e-02 -2.354709497137e-02 7.247050654169e-02
    endloop
  endfacet
  facet normal 1.000000000000e+00 0.000000000000e+00 0.000000000000e+00
    outer loop
      vertex 2.550000000000e+00 0.000000000000e+00 0.000000000000e+00
      vertex 2.550000000000e+00 -2.354709497137e-02 7.247050654169e-02
      vertex 2.550000000000e+00 -3.099333220238e-02 6.961216387237e-02
    endloop
  endfacet
  facet normal -1.000000000000e+00 0.000000000000e+00 0.000000000000e+00
    outer loop
      vertex -5.000000000000e-02 0.000000000000e+00 0.000000000000e+00
      vertex -5.000000000000e-02 -3.810000000000e-02 6.599113576837e-02
      vertex -5.000000000000e-02 -3.099333220238e-02 6.961216387237e-02
    endloop
  endfacet
  facet normal 1.000000000000e+00 0.000000000000e+00 0.000000000000e+00
    outer loop
      vertex 2.550000000000e+00 0.000000000000e+00 0.000000000000e+00
      vertex 2.550000000000e+00 -3.099333220238e-02 6.961216387237e-02
      vertex 2.550000000000e+00 -3.810000000000e-02 6.599113576837e-02
    endloop
  endfacet
  facet normal -1.000000000000e+00 0.000000000000e+00 0.000000000000e+00
    outer loop
      vertex -5.000000000000e-02 0.000000000000e+00 0.000000000000e+00
      vertex -5.000000000000e-02 -4.478923622469e-02 6.164709497137e-02
      vertex -5.000000000000e-02 -3.810000000000e-02 6.599113576837e-02
    endloop
  endfacet
  facet normal 1.000000000000e+00 0.000000000000e+00 0.000000000000e+00
    outer loop
      vertex 2.550000000000e+00 0.000000000000e+00 0.000000000000e+00
      vertex 2.550000000000e+00 -3.810000000000e-02 6.599113576837e-02
      vertex 2.550000000000e+00 -4.478923622469e-02 6.164709497137e-02
    endloop
  endfacet
  facet normal -1.000000000000e+00 0.000000000000e+00 0.000000000000e+00
    outer loop
      vertex -5.000000000000e-02 0.000000000000e+00 0.000000000000e+00
      vertex -5.000000000000e-02 -5.098775220455e-02 5.662763570138e-02
      vertex -5.000000000000e-02 -4.478923622469e-02 6.164709497137e-02
    endloop
  endfacet
  facet normal 1.000000000000e+00 0.000000000000e+00 0.000000000000e+00
    outer loop
      vertex 2.550000000000e+00 0.000000000000e+00 0.000000000000e+00
      vertex 2.550000000000e+00 -4.478923622469e-02 6.164709497137e-02
      vertex 2.550000000000e+00 -5.098775220455e-02 5.662763570138e-02
    endloop
  endfacet
  facet normal -1.000000000000e+00 0.000000000000e+00 0.000000000000e+00
    outer loop
      vertex -5.000000000000e-02 0.000000000000e+00 0.000000000000e+00
      vertex -5.000000000000e-02 -5.662763570138e-02 5.098775220455e-02
      vertex -5.000000000000e-02 -5.098775220455e-02 5.662763570138e-02
    endloop
  endfacet
  facet normal 1.000000000000e+00 0.000000000000e+00 0.000000000000e+00
    outer loop
      vertex 2.550000000000e+00 0.000000000000e+00 0.000000000000e+00
      vertex 2.550000000000e+00 -5.098775220455e-02 5.662763570138e-02
      vertex 2.550000000000e+00 -5.662763570138e-02 5.098775220455e-02
    endloop
  endfacet
  facet normal -1.000000000000e+00 0.000000000000e+00 0.000000000000e+00
    outer loop
      vertex -5.000000000000e-02 0.000000000000e+00 0.000000000000e+00
      vertex -5.000000000000e-02 -6.164709497137e-02 4.478923622469e-02
      vertex -5.000000000000e-02 -5.662763570138e-02 5.098775220455e-02
    endloop
  endfacet
  facet normal 1.000000000000e+00 0.000000000000e+00 0.000000000000e+00
    outer loop
      vertex 2.550000000000e+00 0.000000000000e+00 0.000000000000e+00
      vertex 2.550000000000e+00 -5.662763570138e-02 5.098775220455e-02
      vertex 2.550000000000e+00 -6.164709497137e-02 4.478923622469e-02
    endloop
  endfacet
  facet normal -1.000000000000e+00 0.000000000000e+00 0.000000000000e+00
    outer loop
      vertex -5.000000000000e-02 0.000000000000e+00 0.000000000000e+00
      vertex -5.000000000000e-02 -6.599113576837e-02 3.810000000000e-02
      vertex -5.000000000000e-02 -6.164709497137e-02 4.478923622469e-02
    endloop
  endfacet
  facet normal 1.000000000000e+00 0.000000000000e+00 0.000000000000e+00
    outer loop
      vertex 2.550000000000e+00 0.000000000000e+00 0.000000000000e+00
      vertex 2.550000000000e+00 -6.164709497137e-02 4.478923622469e-02
      vertex 2.550000000000e+00 -6.599113576837e-02 3.810000000000e-02
    endloop
  endfacet
  facet normal -1.000000000000e+00 0.000000000000e+00 0.000000000000e+00
    outer loop
      vertex -5.000000000000e-02 0.000000000000e+00 0.000000000000e+00
      vertex -5.000000000000e-02 -6.961216387237e-02 3.099333220238e-02
      vertex -5.000000000000e-02 -6.599113576837e-02 3.810000000000e-02
    endloop
  endfacet
  facet normal 1.000000000000e+00 0.000000000000e+00 0.000000000000e+00
    outer loop
      vertex 2.550000000000e+00 0.000000000000e+00 0.000000000000e+00
      vertex 2.550000000000e+00 -6.599113576837e-02 3.810000000000e-02
      vertex 2.550000000000e+00 -6.961216387237e-02 3.099333220238e-02
    endloop
  endfacet
  facet normal -1.000000000000e+00 0.000000000000e+00 0.000000000000e+00
    outer loop
      vertex -5.000000000000e-02 0.000000000000e+00 0.000000000000e+00
      vertex -5.000000000000e-02 -7.247050654169e-02 2.354709497137e-02
      vertex -5.000000000000e-02 -6.961216387237e-02 3.099333220238e-02
    endloop
  endfacet
  facet normal 1.000000000000e+00 0.000000000000e+00 0.000000000000e+00
    outer loop
      vertex 2.550000000000e+00 0.000000000000e+00 0.000000000000e+00
      vertex 2.550000000000e+00 -6.961216387237e-02 3.099333220238e-02
      vertex 2.550000000000e+00 -7.247050654169e-02 2.354709497137e-02
    endloop
  endfacet
  facet normal -1.000000000000e+00 0.000000000000e+00 0.000000000000e+00
    outer loop
      vertex -5.000000000000e-02 0.000000000000e+00 0.000000000000e+00
      vertex -5.000000000000e-02 -7.453484717592e-02 1.584287084031e-02
      vertex -5.000000000000e-02 -7.247050654169e-02 2.354709497137e-02
    endloop
  endfacet
  facet normal 1.000000000000e+00 0.000000000000e+00 0.000000000000e+00
    outer loop
      vertex 2.550000000000e+00 0.000000000000e+00 0.000000000000e+00
      vertex 2.550000000000e+00 -7.247050654169e-02 2.354709497137e-02
      vertex 2.550000000000e+00 -7.453484717592e-02 1.584287084031e-02
    endloop
  endfacet
  facet normal -1.000000000000e+00 0.000000000000e+00 0.000000000000e+00
    outer loop
      vertex -5.000000000000e-02 0.000000000000e+00 0.000000000000e+00
      vertex -5.000000000000e-02 -7.578256842706e-02 7.965068900995e-03
      vertex -5.000000000000e-02 -7.453484717592e-02 1.584287084031e-02
    endloop
  endfacet
  facet normal 1.000000000000e+00 0.000000000000e+00 0.000000000000e+00
    outer loop
      vertex 2.550000000000e+00 0.000000000000e+00 0.000000000000e+00
      vertex 2.550000000000e+00 -7.453484717592e-02 1.584287084031e-02
      vertex 2.550000000000e+00 -7.578256842706e-02 7.965068900995e-03
    endloop
  endfacet
  facet normal -1.000000000000e+00 0.000000000000e+00 0.000000000000e+00
    outer loop
      vertex -5.000000000000e-02 0.000000000000e+00 0.000000000000e+00
      vertex -5.000000000000e-02 -7.620000000000e-02 9.331808609503e-18
      vertex -5.000000000000e-02 -7.578256842706e-02 7.965068900995e-03
    endloop
  endfacet
  facet normal 1.000000000000e+00 0.000000000000e+00 0.000000000000e+00
    outer loop
      vertex 2.550000000000e+00 0.000000000000e+00 0.000000000000e+00
      vertex 2.550000000000e+00 -7.578256842706e-02 7.965068900995e-03
      vertex 2.550000000000e+00 -7.620000000000e-02 9.331808609503e-18
    endloop
  endfacet
  facet normal -1.000000000000e+00 -0.000000000000e+00 0.000000000000e+00
    outer loop
      vertex -5.000000000000e-02 0.000000000000e+00 0.000000000000e+00
      vertex -5.000000000000e-02 -7.578256842706e-02 -7.965068900995e-03
      vertex -5.000000000000e-02 -7.620000000000e-02 9.331808609503e-18
    endloop
  endfacet
  facet normal 1.000000000000e+00 0.000000000000e+00 0.000000000000e+00
    outer loop
      vertex 2.550000000000e+00 0.000000000000e+00 0.000000000000e+00
      vertex 2.550000000000e+00 -7.620000000000e-02 9.331808609503e-18
      vertex 2.550000000000e+00 -7.578256842706e-02 -7.965068900995e-03
    endloop
  endfacet
  facet normal -1.000000000000e+00 0.000000000000e+00 0.000000000000e+00
    outer loop
      vertex -5.000000000000e-02 0.000000000000e+00 0.000000000000e+00
      vertex -5.000000000000e-02 -7.453484717592e-02 -1.584287084031e-02
      vertex -5.000000000000e-02 -7.578256842706e-02 -7.965068900995e-03
    endloop
  endfacet
  facet normal 1.000000000000e+00 0.000000000000e+00 0.000000000000e+00
    outer loop
      vertex 2.550000000000e+00 0.000000000000e+00 0.000000000000e+00
      vertex 2.550000000000e+00 -7.578256842706e-02 -7.965068900995e-03
      vertex 2.550000000000e+00 -7.453484717592e-02 -1.584287084031e-02
    endloop
  endfacet
  facet normal -1.000000000000e+00 0.000000000000e+00 0.000000000000e+00
    outer loop
      vertex -5.000000000000e-02 0.000000000000e+00 0.000000000000e+00
      vertex -5.000000000000e-02 -7.247050654169e-02 -2.354709497137e-02
      vertex -5.000000000000e-02 -7.453484717592e-02 -1.584287084031e-02
    endloop
  endfacet
  facet normal 1.000000000000e+00 0.000000000000e+00 0.000000000000e+00
    outer loop
      vertex 2.550000000000e+00 0.000000000000e+00 0.000000000000e+00
      vertex 2.550000000000e+00 -7.453484717592e-02 -1.584287084031e-02
      vertex 2.550000000000e+00 -7.247050654169e-02 -2.354709497137e-02
    endloop
  endfacet
  facet normal -1.000000000000e+00 0.000000000000e+00 0.000000000000e+00
    outer loop
      vertex -5.000000000000e-02 0.000000000000e+00 0.000000000000e+00
      vertex -5.000000000000e-02 -6.961216387237e-02 -3.099333220238e-02
      vertex -5.000000000000e-02 -7.247050654169e-02 -2.354709497137e-02
    endloop
  endfacet
  facet normal 1.000000000000e+00 0.000000000000e+00 0.000000000000e+00
    outer loop
      vertex 2.550000000000e+00 0.000000000000e+00 0.000000000000e+00
      vertex 2.550000000000e+00 -7.247050654169e-02 -2.354709497137e-02
      vertex 2.550000000000e+00 -6.961216387237e-02 -3.099333220238e-02
    endloop
  endfacet
  facet normal -1.000000000000e+00 0.000000000000e+00 0.000000000000e+00
    outer loop
      vertex -5.000000000000e-02 0.000000000000e+00 0.000000000000e+00
      vertex -5.000000000000e-02 -6.599113576837e-02 -3.810000000000e-02
      vertex -5.000000000000e-02 -6.961216387237e-02 -3.099333220238e-02
    endloop
  endfacet
  facet normal 1.000000000000e+00 0.000000000000e+00 0.000000000000e+00
    outer loop
      vertex 2.550000000000e+00 0.000000000000e+00 0.000000000000e+00
      vertex 2.550000000000e+00 -6.961216387237e-02 -3.099333220238e-02
      vertex 2.550000000000e+00 -6.599113576837e-02 -3.810000000000e-02
    endloop
  endfacet
  facet normal -1.000000000000e+00 0.000000000000e+00 0.000000000000e+00
    outer loop
      vertex -5.000000000000e-02 0.000000000000e+00 0.000000000000e+00
      vertex -5.000000000000e-02 -6.164709497137e-02 -4.478923622469e-02
      vertex -5.000000000000e-02 -6.599113576837e-02 -3.810000000000e-02
    endloop
  endfacet
  facet normal 1.000000000000e+00 0.000000000000e+00 0.000000000000e+00
    outer loop
      vertex 2.550000000000e+00 0.000000000000e+00 0.000000000000e+00
      vertex 2.550000000000e+00 -6.599113576837e-02 -3.810000000000e-02
      vertex 2.550000000000e+00 -6.164709497137e-02 -4.478923622469e-02
    endloop
  endfacet
  facet normal -1.000000000000e+00 0.000000000000e+00 0.000000000000e+00
    outer loop
      vertex -5.000000000000e-02 0.000000000000e+00 0.000000000000e+00
      vertex -5.000000000000e-02 -5.662763570138e-02 -5.098775220455e-02
      vertex -5.000000000000e-02 -6.164709497137e-02 -4.478923622469e-02
    endloop
  endfacet
  facet normal 1.000000000000e+00 0.000000000000e+00 0.000000000000e+00
    outer loop
      vertex 2.550000000000e+00 0.000000000000e+00 0.000000000000e+00
      vertex 2.550000000000e+00 -6.164709497137e-02 -4.478923622469e-02
      vertex 2.550000000000e+00 -5.662763570138e-02 -5.098775220455e-02
    endloop
  endfacet
  facet normal -1.000000000000e+00 0.000000000000e+00 0.000000000000e+00
    outer loop
      vertex -5.000000000000e-02 0.000000000000e+00 0.000000000000e+00
      vertex -5.000000000000e-02 -5.098775220454e-02 -5.662763570138e-02
      vertex -5.000000000000e-02 -5.662763570138e-02 -5.098775220455e-02
    endloop
  endfacet
  facet normal 1.000000000000e+00 0.000000000000e+00 0.000000000000e+00
    outer loop
      vertex 2.550000000000e+00 0.000000000000e+00 0.000000000000e+00
      vertex 2.550000000000e+00 -5.662763570138e-02 -5.098775220455e-02
      vertex 2.550000000000e+00 -5.098775220454e-02 -5.662763570138e-02
    endloop
  endfacet
  facet normal -1.000000000000e+00 0.000000000000e+00 0.000000000000e+00
    outer loop
      vertex -5.000000000000e-02 0.000000000000e+00 0.000000000000e+00
      vertex -5.000000000000e-02 -4.478923622469e-02 -6.164709497137e-02
      vertex -5.000000000000e-02 -5.098775220454e-02 -5.662763570138e-02
    endloop
  endfacet
  facet normal 1.000000000000e+00 0.000000000000e+00 0.000000000000e+00
    outer loop
      vertex 2.550000000000e+00 0.000000000000e+00 0.000000000000e+00
      vertex 2.550000000000e+00 -5.098775220454e-02 -5.662763570138e-02
      vertex 2.550000000000e+00 -4.478923622469e-02 -6.164709497137e-02
    endloop
  endfacet
  facet normal -1.000000000000e+00 0.000000000000e+00 0.000000000000e+00
    outer loop
      vertex -5.000000000000e-02 0.000000000000e+00 0.000000000000e+00
      vertex -5.000000000000e-02 -3.810000000000e-02 -6.599113576837e-02
      vertex -5.000000000000e-02 -4.478923622469e-02 -6.164709497137e-02
    endloop
  endfacet
  facet normal 1.000000000000e+00 0.000000000000e+00 0.000000000000e+00
    outer loop
      vertex 2.550000000000e+00 0.000000000000e+00 0.000000000000e+00
      vertex 2.550000000000e+00 -4.478923622469e-02 -6.164709497137e-02
      vertex 2.550000000000e+00 -3.810000000000e-02 -6.599113576837e-02
    endloop
  endfacet
  facet normal -1.000000000000e+00 0.000000000000e+00 0.000000000000e+00
    outer loop
      vertex -5.000000000000e-02 0.000000000000e+00 0.000000000000e+00
      vertex -5.000000000000e-02 -3.099333220238e-02 -6.961216387237e-02
      vertex -5.000000000000e-02 -3.810000000000e-02 -6.599113576837e-02
    endloop
  endfacet
  facet normal 1.000000000000e+00 0.000000000000e+00 0.000000000000e+00
    outer loop
      vertex 2.550000000000e+00 0.000000000000e+00 0.000000000000e+00
      vertex 2.550000000000e+00 -3.810000000000e-02 -6.599113576837e-02
      vertex 2.550000000000e+00 -3.099333220238e-02 -6.961216387237e-02
    endloop
  endfacet
  facet normal -1.000000000000e+00 0.000000000000e+00 0.000000000000e+00
    outer loop
      vertex -5.000000000000e-02 0.000000000000e+00 0.000000000000e+00
      vertex -5.000000000000e-02 -2.354709497137e-02 -7.247050654169e-02
      vertex -5.000000000000e-02 -3.099333220238e-02 -6.961216387237e-02
    endloop
  endfacet
  facet normal 1.000000000000e+00 0.000000000000e+00 0.000000000000e+00
    outer loop
      vertex 2.550000000000e+00 0.000000000000e+00 0.000000000000e+00
      vertex 2.550000000000e+00 -3.099333220238e-02 -6.961216387237e-02
      vertex 2.550000000000e+00 -2.354709497137e-02 -7.247050654169e-02
    endloop
  endfacet
  facet normal -1.000000000000e+00 0.000000000000e+00 0.000000000000e+00
    outer loop
      vertex -5.000000000000e-02 0.000000000000e+00 0.000000000000e+00
      vertex -5.000000000000e-02 -1.584287084031e-02 -7.453484717592e-02
      vertex -5.000000000000e-02 -2.354709497137e-02 -7.247050654169e-02
    endloop
  endfacet
  facet normal 1.000000000000e+00 0.000000000000e+00 0.000000000000e+00
    outer loop
      vertex 2.550000000000e+00 0.000000000000e+00 0.000000000000e+00
      vertex 2.550000000000e+00 -2.354709497137e-02 -7.247050654169e-02
      vertex 2.550000000000e+00 -1.584287084031e-02 -7.453484717592e-02
    endloop
  endfacet
  facet normal -1.000000000000e+00 0.000000000000e+00 0.000000000000e+00
    outer loop
      vertex -5.000000000000e-02 0.000000000000e+00 0.000000000000e+00
      vertex -5.000000000000e-02 -7.965068900995e-03 -7.578256842706e-02
      vertex -5.000000000000e-02 -1.584287084031e-02 -7.453484717592e-02
    endloop
  endfacet
  facet normal 1.000000000000e+00 0.000000000000e+00 0.000000000000e+00
    outer loop
      vertex 2.550000000000e+00 0.000000000000e+00 0.000000000000e+00
      vertex 2.550000000000e+00 -1.584287084031e-02 -7.453484717592e-02
      vertex 2.550000000000e+00 -7.965068900995e-03 -7.578256842706e-02
    endloop
  endfacet
  facet normal -1.000000000000e+00 0.000000000000e+00 0.000000000000e+00
    outer loop
      vertex -5.000000000000e-02 0.000000000000e+00 0.000000000000e+00
      vertex -5.000000000000e-02 -1.399771291425e-17 -7.620000000000e-02
      vertex -5.000000000000e-02 -7.965068900995e-03 -7.578256842706e-02
    endloop
  endfacet
  facet normal 1.000000000000e+00 0.000000000000e+00 0.000000000000e+00
    outer loop
      vertex 2.550000000000e+00 0.000000000000e+00 0.000000000000e+00
      vertex 2.550000000000e+00 -7.965068900995e-03 -7.578256842706e-02
      vertex 2.550000000000e+00 -1.399771291425e-17 -7.620000000000e-02
    endloop
  endfacet
  facet normal -1.000000000000e+00 0.000000000000e+00 -0.000000000000e+00
    outer loop
      vertex -5.000000000000e-02 0.000000000000e+00 0.000000000000e+00
      vertex -5.000000000000e-02 7.965068900995e-03 -7.578256842706e-02
      vertex -5.000000000000e-02 -1.399771291425e-17 -7.620000000000e-02
    endloop
  endfacet
  facet normal 1.000000000000e+00 0.000000000000e+00 0.000000000000e+00
    outer loop
      vertex 2.550000000000e+00 0.000000000000e+00 0.000000000000e+00
      vertex 2.550000000000e+00 -1.399771291425e-17 -7.620000000000e-02
      vertex 2.550000000000e+00 7.965068900995e-03 -7.578256842706e-02
    endloop
  endfacet
  facet normal -1.000000000000e+00 0.000000000000e+00 0.000000000000e+00
    outer loop
      vertex -5.000000000000e-02 0.000000000000e+00 0.000000000000e+00
      vertex -5.000000000000e-02 1.584287084031e-02 -7.453484717592e-02
      vertex -5.000000000000e-02 7.965068900995e-03 -7.578256842706e-02
    endloop
  endfacet
  facet normal 1.000000000000e+00 0.000000000000e+00 0.000000000000e+00
    outer loop
      vertex 2.550000000000e+00 0.000000000000e+00 0.000000000000e+00
      vertex 2.550000000000e+00 7.965068900995e-03 -7.578256842706e-02
      vertex 2.550000000000e+00 1.584287084031e-02 -7.453484717592e-02
    endloop
  endfacet
  facet normal -1.000000000000e+00 0.000000000000e+00 0.000000000000e+00
    outer loop
      vertex -5.000000000000e-02 0.000000000000e+00 0.000000000000e+00
      vertex -5.000000000000e-02 2.354709497137e-02 -7.247050654169e-02
      vertex -5.000000000000e-02 1.584287084031e-02 -7.453484717592e-02
    endloop
  endfacet
  facet normal 1.000000000000e+00 0.000000000000e+00 0.000000000000e+00
    outer loop
      vertex 2.550000000000e+00 0.000000000000e+00 0.000000000000e+00
      vertex 2.550000000000e+00 1.584287084031e-02 -7.453484717592e-02
      vertex 2.550000000000e+00 2.354709497137e-02 -7.247050654169e-02
    endloop
  endfacet
  facet normal -1.000000000000e+00 0.000000000000e+00 0.000000000000e+00
    outer loop
      vertex -5.000000000000e-02 0.000000000000e+00 0.000000000000e+00
      vertex -5.000000000000e-02 3.099333220238e-02 -6.961216387237e-02
      vertex -5.000000000000e-02 2.354709497137e-02 -7.247050654169e-02
    endloop
  endfacet
  facet normal 1.000000000000e+00 0.000000000000e+00 0.000000000000e+00
    outer loop
      vertex 2.550000000000e+00 0.000000000000e+00 0.000000000000e+00
      vertex 2.550000000000e+00 2.354709497137e-02 -7.247050654169e-02
      vertex 2.550000000000e+00 3.099333220238e-02 -6.961216387237e-02
    endloop
  endfacet
  facet normal -1.000000000000e+00 0.000000000000e+00 0.000000000000e+00
    outer loop
      vertex -5.000000000000e-02 0.000000000000e+00 0.000000000000e+00
      vertex -5.000000000000e-02 3.810000000000e-02 -6.599113576837e-02
      vertex -5.000000000000e-02 3.099333220238e-02 -6.961216387237e-02
    endloop
  endfacet
  facet normal 1.000000000000e+00 0.000000000000e+00 0.000000000000e+00
    outer loop
      vertex 2.550000000000e+00 0.000000000000e+00 0.000000000000e+00
      vertex 2.550000000000e+00 3.099333220238e-02 -6.961216387237e-02
      vertex 2.550000000000e+00 3.810000000000e-02 -6.599113576837e-02
    endloop
  endfacet
  facet normal -1.000000000000e+00 0.000000000000e+00 0.000000000000e+00
    outer loop
      vertex -5.000000000000e-02 0.000000000000e+00 0.000000000000e+00
      vertex -5.000000000000e-02 4.478923622469e-02 -6.164709497137e-02
      vertex -5.000000000000e-02 3.810000000000e-02 -6.599113576837e-02
    endloop
  endfacet
  facet normal 1.000000000000e+00 0.000000000000e+00 0.000000000000e+00
    outer loop
      vertex 2.550000000000e+00 0.000000000000e+00 0.000000000000e+00
      vertex 2.550000000000e+00 3.810000000000e-02 -6.599113576837e-02
      vertex 2.550000000000e+00 4.478923622469e-02 -6.164709497137e-02
    endloop
  endfacet
  facet normal -1.000000000000e+00 0.000000000000e+00 0.000000000000e+00
    outer loop
      vertex -5.000000000000e-02 0.000000000000e+00 0.000000000000e+00
      vertex -5.000000000000e-02 5.098775220454e-02 -5.662763570138e-02
      vertex -5.000000000000e-02 4.478923622469e-02 -6.164709497137e-02
    endloop
  endfacet
  facet normal 1.000000000000e+00 0.000000000000e+00 0.000000000000e+00
    outer loop
      vertex 2.550000000000e+00 0.000000000000e+00 0.000000000000e+00
      vertex 2.550000000000e+00 4.478923622469e-02 -6.164709497137e-02
      vertex 2.550000000000e+00 5.098775220454e-02 -5.662763570138e-02
    endloop
  endfacet
  facet normal -1.000000000000e+00 0.000000000000e+00 0.000000000000e+00
    outer loop
      vertex -5.000000000000e-02 0.000000000000e+00 0.000000000000e+00
      vertex -5.000000000000e-02 5.662763570138e-02 -5.098775220454e-02
      vertex -5.000000000000e-02 5.098775220454e-02 -5.662763570138e-02
    endloop
  endfacet
  facet normal 1.000000000000e+00 0.000000000000e+00 0.000000000000e+00
    outer loop
      vertex 2.550000000000e+00 0.000000000000e+00 0.000000000000e+00
      vertex 2.550000000000e+00 5.098775220454e-02 -5.662763570138e-02
      vertex 2.550000000000e+00 5.662763570138e-02 -5.098775220454e-02
    endloop
  endfacet
  facet normal -1.000000000000e+00 0.000000000000e+00 0.000000000000e+00
    outer loop
      vertex -5.000000000000e-02 0.000000000000e+00 0.000000000000e+00
      vertex -5.000000000000e-02 6.164709497137e-02 -4.478923622469e-02
      vertex -5.000000000000e-02 5.662763570138e-02 -5.098775220454e-02
    endloop
  endfacet
  facet normal 1.000000000000e+00 0.000000000000e+00 0.000000000000e+00
    outer loop
      vertex 2.550000000000e+00 0.000000000000e+00 0.000000000000e+00
      vertex 2.550000000000e+00 5.662763570138e-02 -5.098775220454e-02
      vertex 2.550000000000e+00 6.164709497137e-02 -4.478923622469e-02
    endloop
  endfacet
  facet normal -1.000000000000e+00 0.000000000000e+00 0.000000000000e+00
    outer loop
      vertex -5.000000000000e-02 0.000000000000e+00 0.000000000000e+00
      vertex -5.000000000000e-02 6.599113576837e-02 -3.810000000000e-02
      vertex -5.000000000000e-02 6.164709497137e-02 -4.478923622469e-02
    endloop
  endfacet
  facet normal 1.000000000000e+00 0.000000000000e+00 0.000000000000e+00
    outer loop
      vertex 2.550000000000e+00 0.000000000000e+00 0.000000000000e+00
      vertex 2.550000000000e+00 6.164709497137e-02 -4.478923622469e-02
      vertex 2.550000000000e+00 6.599113576837e-02 -3.810000000000e-02
    endloop
  endfacet
  facet normal -1.000000000000e+00 0.000000000000e+00 0.000000000000e+00
    outer loop
      vertex -5.000000000000e-02 0.000000000000e+00 0.000000000000e+00
      vertex -5.000000000000e-02 6.961216387237e-02 -3.099333220238e-02
      vertex -5.000000000000e-02 6.599113576837e-02 -3.810000000000e-02
    endloop
  endfacet
  facet normal 1.000000000000e+00 0.000000000000e+00 0.000000000000e+00
    outer loop
      vertex 2.550000000000e+00 0.000000000000e+00 0.000000000000e+00
      vertex 2.550000000000e+00 6.599113576837e-02 -3.810000000000e-02
      vertex 2.550000000000e+00 6.961216387237e-02 -3.099333220238e-02
    endloop
  endfacet
  facet normal -1.000000000000e+00 0.000000000000e+00 0.000000000000e+00
    outer loop
      vertex -5.000000000000e-02 0.000000000000e+00 0.000000000000e+00
      vertex -5.000000000000e-02 7.247050654169e-02 -2.354709497137e-02
      vertex -5.000000000000e-02 6.961216387237e-02 -3.099333220238e-02
    endloop
  endfacet
  facet normal 1.000000000000e+00 0.000000000000e+00 0.000000000000e+00
    outer loop
      vertex 2.550000000000e+00 0.000000000000e+00 0.000000000000e+00
      vertex 2.550000000000e+00 6.961216387237e-02 -3.099333220238e-02
      vertex 2.550000000000e+00 7.247050654169e-02 -2.354709497137e-02
    endloop
  endfacet
  facet normal -1.000000000000e+00 0.000000000000e+00 0.000000000000e+00
    outer loop
      vertex -5.000000000000e-02 0.000000000000e+00 0.000000000000e+00
      vertex -5.000000000000e-02 7.453484717592e-02 -1.584287084031e-02
      vertex -5.000000000000e-02 7.247050654169e-02 -2.354709497137e-02
    endloop
  endfacet
  facet normal 1.000000000000e+00 0.000000000000e+00 0.000000000000e+00
    outer loop
      vertex 2.550000000000e+00 0.000000000000e+00 0.000000000000e+00
      vertex 2.550000000000e+00 7.247050654169e-02 -2.354709497137e-02
      vertex 2.550000000000e+00 7.453484717592e-02 -1.584287084031e-02
    endloop
  endfacet
  facet normal -1.000000000000e+00 0.000000000000e+00 0.000000000000e+00
    outer loop
      vertex -5.000000000000e-02 0.000000000000e+00 0.000000000000e+00
      vertex -5.000000000000e-02 7.578256842706e-02 -7.965068900995e-03
      vertex -5.000000000000e-02 7.453484717592e-02 -1.584287084031e-02
    endloop
  endfacet
  facet normal 1.000000000000e+00 0.000000000000e+00 0.000000000000e+00
    outer loop
      vertex 2.550000000000e+00 0.000000000000e+00 0.000000000000e+00
      vertex 2.550000000000e+00 7.453484717592e-02 -1.584287084031e-02
      vertex 2.550000000000e+00 7.578256842706e-02 -7.965068900995e-03
    endloop
  endfacet
  facet normal -1.000000000000e+00 0.000000000000e+00 0.000000000000e+00
    outer loop
      vertex -5.000000000000e-02 0.000000000000e+00 0.000000000000e+00
      vertex -5.000000000000e-02 7.620000000000e-02 0.000000000000e+00
      vertex -5.000000000000e-02 7.578256842706e-02 -7.965068900995e-03
    endloop
  endfacet
  facet normal 1.000000000000e+00 -0.000000000000e+00 0.000000000000e+00
    outer loop
      vertex 2.550000000000e+00 0.000000000000e+00 0.000000000000e+00
      vertex 2.550000000000e+00 7.578256842706e-02 -7.965068900995e-03
      vertex 2.550000000000e+00 7.620000000000e-02 0.000000000000e+00
    endloop
  endfacet
endsolid poligono
